<?xml version="1.0" encoding="utf-8"?>
<!-- Generator: Adobe Illustrator 21.1.0, SVG Export Plug-In . SVG Version: 6.00 Build 0)  -->
<svg version="1.1" id="Layer_1" xmlns="http://www.w3.org/2000/svg" xmlns:xlink="http://www.w3.org/1999/xlink" x="0px" y="0px"
	 viewBox="0 0 3677.1 1755.3" style="enable-background:new 0 0 3677.1 1755.3;" xml:space="preserve">
<style type="text/css">
	.st0{fill:#FFFFFF;}
	.st1{fill:#787878;}
	.st2{fill:url(#SVGID_1_);}
	.st3{fill:#29BFD2;}
	.st4{fill:url(#SVGID_2_);}
	.st5{fill:url(#SVGID_3_);}
	.st6{fill:url(#SVGID_4_);}
	.st7{fill:url(#SVGID_5_);}
	.st8{fill:url(#SVGID_6_);}
	.st9{fill:url(#SVGID_7_);}
	.st10{fill:url(#SVGID_8_);}
	.st11{fill:#515151;}
</style>
<g>
	<path class="st0" d="M652.4,1036.7c-1-35.3-20.1-67.7-50.8-85.4l-104.2-60.1c-29.9-17.3-66.4-18-97-2.5c-1.6,0.8-3.3,1.5-4.8,2.4
		L51.1,1089.3c-9.4,5.4-17.5,12.3-24.6,20.1C9.8,1127.8,0,1152,0,1177.7v355.7c0,4.5,0.6,8.9,1.4,13.1
		c8.5,44.9,59.6,70.5,101.3,46.3l93.1-53.7l0,0v210.4c0,4.5,4.9,7.4,9,5l64.9-37.8v-1.4v-218.6l0,0l165.7-95.4
		c17-9.8,27.4-27.9,27.4-47.4v-30.2v-225.1c0-10.5-11.4-17.1-20.5-11.8l-206.5,119.3l-13.5,7.8c-17,9.8-27.5,28-27.4,47.7l0.9,165.9
		v25.6l-106.9,61.4c-4.3,2.5-9.2,1.2-12.1-2.1c-1.5-1.7-2.4-3.8-2.4-6.4v-316.4c0-17.2,9.1-33.2,24-41.9l0.9-0.5l326.2-187.5
		c3-1.4,6-2.4,9.2-3.2c11.9-2.9,24.5-1.4,35.5,4.7l85.4,49.3c10.6,6.4,18.1,16.6,21.4,28.2c1.2,4.3,1.9,8.7,1.9,13.3v373.9
		c-0.2,11.3-4.3,22-11.4,30.4c-2.3,2.8-5,5.3-8,7.5l-217,125.6v73.8c0,5.3,5.7,8.6,10.3,5.9l177.3-102.6l-0.1,0.2l71.7-41.3
		c16.8-9.7,30.1-23.9,39-40.4c7.8-14.5,12.2-30.9,12.2-48v-397.2C652.6,1038.7,652.4,1037.7,652.4,1036.7z M388.8,1202.7l0.1,82.7
		v36.2c0,12.2-6.5,23.5-17.1,29.6l-102.3,59l0,0l0,0v-118c0-12.1,6.9-24.5,17.3-30.6l26.5-15.3L388.8,1202.7z"/>
	<g>
		<path class="st0" d="M1034.2,1293.5c0,36.2-9.6,63.7-28.8,82.5s-47.5,28.3-84.8,28.3h-83.1v116.3h-58.2c-7.4,0-11.1-3.7-11.1-11.1
			v-404.4c0-7.4,3.7-11.1,11.1-11.1h141.3c37.3,0,65.6,9.4,84.8,28.3c19.2,18.8,28.8,46.4,28.8,82.5V1293.5z M837.5,1346.1h90.9
			c11.4,0,20.4-3.2,26.9-9.7s9.7-15.6,9.7-27.4v-119.7c0-11.8-3.2-21-9.7-27.4c-6.5-6.5-15.4-9.7-26.9-9.7h-90.9V1346.1z"/>
		<path class="st0" d="M1353.8,1274.6h-195v39.9c0,10.3,2.8,18.7,8.3,24.9c5.5,6.3,13.5,9.4,23.8,9.4h68.1c11.4,0,20.9-3.3,28.3-10
			c7.4-6.6,12.9-13.7,16.6-21.1l44.9,24.4c5.2,3,6.5,7.2,3.9,12.7c-7.8,15.9-19.4,28.5-34.9,37.9s-36,14.1-61.5,14.1h-57.6
			c-35.8,0-63-9.5-81.4-28.5c-18.5-19-27.7-47.4-27.7-85v-88.6c0-37.7,9.2-66,27.7-85s45.6-28.5,81.4-28.5h46
			c35.8,0,63,9.5,81.4,28.5c18.5,19,27.7,47.4,27.7,85L1353.8,1274.6L1353.8,1274.6z M1158.8,1224.2h125.8v-40.4
			c0-10.3-2.8-18.6-8.3-24.9s-13.5-9.4-23.8-9.4H1191c-10.3,0-18.3,3.1-23.8,9.4s-8.3,14.6-8.3,24.9L1158.8,1224.2L1158.8,1224.2z"
			/>
		<path class="st0" d="M1412,1204.8c0-37.7,9.2-66,27.7-85s45.6-28.5,81.4-28.5h58.7c35.8,0,63,9.5,81.4,28.5
			c18.5,19,27.7,47.4,27.7,85v88.6c0,37.7-9.2,66-27.7,85s-45.6,28.5-81.4,28.5h-58.7c-35.8,0-63-9.5-81.4-28.5
			c-18.5-19-27.7-47.4-27.7-85V1204.8z M1619.7,1183.8c0-10.3-2.8-18.6-8.3-24.9s-13.5-9.4-23.8-9.4h-74.2
			c-10.3,0-18.3,3.1-23.8,9.4s-8.3,14.6-8.3,24.9v130.7c0,10.3,2.8,18.7,8.3,24.9c5.5,6.3,13.5,9.4,23.8,9.4h74.2
			c10.3,0,18.3-3.1,23.8-9.4s8.3-14.6,8.3-24.9V1183.8z"/>
		<path class="st0" d="M2015.8,1293.5c0,36.2-9.6,63.7-28.8,82.5c-19.2,18.8-47.5,28.3-84.8,28.3h-83.1v116.3H1761
			c-7.4,0-11.1-3.7-11.1-11.1v-404.4c0-7.4,3.7-11.1,11.1-11.1h141.3c37.3,0,65.6,9.4,84.8,28.3c19.2,18.8,28.8,46.4,28.8,82.5v88.7
			H2015.8z M1819.1,1346.1h90.9c11.4,0,20.4-3.2,26.9-9.7s9.7-15.6,9.7-27.4v-119.7c0-11.8-3.2-21-9.7-27.4
			c-6.5-6.5-15.4-9.7-26.9-9.7h-90.9V1346.1z"/>
		<path class="st0" d="M2146,1404.3h-58.2c-7.4,0-11.1-3.7-11.1-11.1V988.8c0-7.4,3.7-11.1,11.1-11.1h58.2V1404.3z"/>
		<path class="st0" d="M2471.2,1274.6h-195v39.9c0,10.3,2.8,18.7,8.3,24.9c5.5,6.3,13.5,9.4,23.8,9.4h68.1c11.4,0,20.9-3.3,28.3-10
			c7.4-6.6,12.9-13.7,16.6-21.1l44.9,24.4c5.2,3,6.5,7.2,3.9,12.7c-7.8,15.9-19.4,28.5-34.9,37.9s-36,14.1-61.5,14.1H2316
			c-35.8,0-63-9.5-81.4-28.5c-18.5-19-27.7-47.4-27.7-85v-88.6c0-37.7,9.2-66,27.7-85s45.6-28.5,81.4-28.5h46
			c35.8,0,63,9.5,81.4,28.5c18.5,19,27.7,47.4,27.7,85v69.9H2471.2z M2276.2,1224.2H2402v-40.4c0-10.3-2.8-18.6-8.3-24.9
			s-13.5-9.4-23.8-9.4h-61.5c-10.3,0-18.3,3.1-23.8,9.4s-8.3,14.6-8.3,24.9L2276.2,1224.2L2276.2,1224.2z"/>
		<path class="st0" d="M2728.7,986l-6.6,47.1h-53.2c-12.2,0-21.1,3.5-26.9,10.5c-5.7,7-8.6,15.3-8.6,24.9v25.5h88.6v58.2h-88.6
			v252.1h-58.2c-7.4,0-11.1-3.7-11.1-11.1v-241h-55.4v-47.1c0-7.4,3.7-11.1,11.1-11.1h44.3v-11c0-34.7,9.5-61.4,28.5-80
			s45.9-28,80.6-28h46C2726.7,974.9,2729.9,978.6,2728.7,986z"/>
		<path class="st0" d="M2951.4,1339.5c5.5-6.3,8.3-14.6,8.3-24.9v-209.4c0-7.4,3.7-11.1,11.1-11.1h58.2v202.2
			c0,36.2-9.1,63.7-27.1,82.5c-18.1,18.8-44.5,28.3-79.2,28.3h-51c-34.7,0-61.1-9.4-79.2-28.3c-18.1-18.8-27.1-46.3-27.1-82.5
			v-191.1c0-7.4,3.7-11.1,11.1-11.1h58.2v220.5c0,10.3,2.8,18.7,8.3,24.9c5.5,6.3,13.5,9.4,23.8,9.4h60.9
			C2937.9,1348.9,2945.9,1345.7,2951.4,1339.5z"/>
		<path class="st0" d="M3294.9,1404.3c-7.4,0-11.1-3.7-11.1-11.1v-203.9c0-11.8-3.2-21-9.7-27.4c-6.5-6.5-15.4-9.7-26.9-9.7h-85.3
			v252.1h-58.2c-7.4,0-11.1-3.7-11.1-11.1v-288.1c0-7.4,3.7-11.1,11.1-11.1H3245c35.8,0,62.8,9.4,80.9,28.3
			c18.1,18.8,27.1,46.4,27.1,82.5v199.4L3294.9,1404.3L3294.9,1404.3z"/>
		<path class="st0" d="M3607.9,1094V988.8c0-7.4,3.7-11.1,11.1-11.1h58.2v415.5c0,7.4-3.7,11.1-11.1,11.1h-146.8
			c-35.8,0-62.8-9.4-80.9-28.3c-18.1-18.8-27.1-46.3-27.1-82.5v-88.6c0-36.2,9-63.7,27.1-82.5s45.1-28.3,80.9-28.3L3607.9,1094
			L3607.9,1094z M3607.9,1152.2H3517c-11.5,0-20.4,3.2-26.9,9.7s-9.7,15.6-9.7,27.4V1309c0,11.8,3.2,21,9.7,27.4
			c6.5,6.5,15.4,9.7,26.9,9.7h90.9V1152.2z"/>
	</g>
</g>
<g>
	<g>
		<polygon class="st1" points="195.8,575.2 195.7,549.6 195.7,575.2 195.7,575.2 		"/>
		<linearGradient id="SVGID_1_" gradientUnits="userSpaceOnUse" x1="342.2458" y1="685.2863" x2="640.3716" y2="685.2863">
			<stop  offset="3.503906e-02" style="stop-color:#ED4A99"/>
			<stop  offset="1" style="stop-color:#ED4A97"/>
		</linearGradient>
		<path class="st2" d="M559.2,585.9l-217,125.6v73.8c0,5.3,5.7,8.6,10.3,5.9l177.3-102.6l-0.1,0.2l71.7-41.3
			c16.8-9.7,30.1-23.9,39-40.4l-73.2-28.8C564.8,581.2,562.2,583.7,559.2,585.9z"/>
		<path class="st3" d="M388.8,325l0.1,82.7l73.8,38.3V220.8c0-10.5-11.4-17.1-20.5-11.8L235.6,328.2l77.8,40.3L388.8,325z"/>
		<linearGradient id="SVGID_2_" gradientUnits="userSpaceOnUse" x1="269.5793" y1="513.3528" x2="462.7025" y2="513.3528">
			<stop  offset="0" style="stop-color:#2A8CBD"/>
			<stop  offset="0.5015" style="stop-color:#36B2D5"/>
			<stop  offset="0.535" style="stop-color:#33B5D4"/>
			<stop  offset="0.6969" style="stop-color:#2BBDD3"/>
			<stop  offset="1" style="stop-color:#29BFD2"/>
		</linearGradient>
		<path class="st4" d="M388.9,443.9c0,12.2-6.5,23.5-17.1,29.6l-102.3,59V619l165.7-95.4c17-9.8,27.4-27.9,27.4-47.4v-30.2
			l-73.8-38.3L388.9,443.9z"/>
		<linearGradient id="SVGID_3_" gradientUnits="userSpaceOnUse" x1="254.1038" y1="877.6596" x2="254.1038" y2="328.2415">
			<stop  offset="0" style="stop-color:#2499CE"/>
			<stop  offset="1" style="stop-color:#29BFD2"/>
		</linearGradient>
		<path class="st5" d="M195.7,661.4v210.4c0,4.5,4.9,7.4,9,5l64.9-37.8v-1.4V619l0,0v-86.5l0,0v0v-118c0-12.1,6.9-24.5,17.3-30.6
			l26.5-15.3l-77.8-40.3l-13.5,7.8c-17,9.8-27.5,28-27.4,47.7l0.9,165.9v-67.5v67.5l0.1,25.5l-0.1,0.1l0,0L195.7,661.4L195.7,661.4z
			"/>
		<linearGradient id="SVGID_4_" gradientUnits="userSpaceOnUse" x1="438.0913" y1="80.3821" x2="646.3643" y2="80.3821">
			<stop  offset="0" style="stop-color:#7368A7"/>
			<stop  offset="0.2175" style="stop-color:#7F6AA8"/>
			<stop  offset="0.713" style="stop-color:#B44F94"/>
		</linearGradient>
		<path class="st6" d="M601.5,73.7L497.4,13.6c-29.9-17.3-66.4-18-97-2.5l34.2,67.5c11.9-2.9,24.5-1.4,35.5,4.7l85.4,49.3
			c10.6,6.4,18.1,16.6,21.4,28.2l75.6-1.7C651.3,123.8,632.2,91.4,601.5,73.7z"/>
		<linearGradient id="SVGID_5_" gradientUnits="userSpaceOnUse" x1="609.8688" y1="607.1984" x2="609.8688" y2="159.0864">
			<stop  offset="0" style="stop-color:#ED4A99"/>
			<stop  offset="0.9234" style="stop-color:#B44F94"/>
		</linearGradient>
		<path class="st7" d="M652.5,162c0-1-0.2-2-0.2-2.9l-75.6,1.7c1.2,4.3,1.9,8.7,1.9,13.3l0,373.9c-0.2,11.3-4.3,22-11.4,30.4
			l73.2,28.8c7.8-14.5,12.2-30.9,12.2-48V162z"/>
		<linearGradient id="SVGID_6_" gradientUnits="userSpaceOnUse" x1="26.5335" y1="140.2082" x2="435.0157" y2="140.2082">
			<stop  offset="5.000000e-03" style="stop-color:#117BBF"/>
			<stop  offset="0.5419" style="stop-color:#5072B6"/>
			<stop  offset="0.7529" style="stop-color:#6D6BA9"/>
			<stop  offset="1" style="stop-color:#7368A7"/>
		</linearGradient>
		<path class="st8" d="M395.5,13.5L51.1,211.6c-9.4,5.4-17.5,12.3-24.6,20.1l72.6,37.6L425.4,81.8c3-1.4,6-2.4,9.2-3.2l-34.2-67.5
			C398.8,11.9,397.1,12.6,395.5,13.5z"/>
		<linearGradient id="SVGID_7_" gradientUnits="userSpaceOnUse" x1="43.3694" y1="649.8134" x2="192.8363" y2="649.8134">
			<stop  offset="0" style="stop-color:#0898D1"/>
			<stop  offset="0.3673" style="stop-color:#0896CE"/>
			<stop  offset="0.642" style="stop-color:#0690C4"/>
			<stop  offset="0.8858" style="stop-color:#0485B4"/>
			<stop  offset="1" style="stop-color:#037EAA"/>
		</linearGradient>
		<path class="st9" d="M102.6,715.1l93.1-53.7v-86.1L88.8,636.6c-4.3,2.5-9.2,1.2-12.1-2.1L1.3,668.8
			C9.9,713.7,60.9,739.3,102.6,715.1z"/>
		<linearGradient id="SVGID_8_" gradientUnits="userSpaceOnUse" x1="49.5627" y1="260.6668" x2="49.5627" y2="639.663">
			<stop  offset="0" style="stop-color:#117BBF"/>
			<stop  offset="0.4267" style="stop-color:#2086C7"/>
			<stop  offset="1" style="stop-color:#0898D1"/>
		</linearGradient>
		<path class="st10" d="M0,300v355.7c0,4.5,0.6,8.9,1.4,13.1l75.3-34.3c-1.5-1.7-2.4-3.8-2.4-6.4V311.7c0-17.2,9.1-33.2,24-41.9
			l0.9-0.5l-72.6-37.6C9.8,250.2,0,274.3,0,300z"/>
	</g>
	<g>
		<path class="st11" d="M1034.2,415.8c0,36.2-9.6,63.7-28.8,82.5c-19.2,18.8-47.5,28.3-84.8,28.3h-83.1v116.3h-58.2
			c-7.4,0-11.1-3.7-11.1-11.1V227.5c0-7.4,3.7-11.1,11.1-11.1h141.3c37.3,0,65.6,9.4,84.8,28.3c19.2,18.8,28.8,46.4,28.8,82.5V415.8
			z M837.5,468.4h90.9c11.4,0,20.4-3.2,26.9-9.7c6.5-6.5,9.7-15.6,9.7-27.4V311.7c0-11.8-3.2-21-9.7-27.4
			c-6.5-6.5-15.4-9.7-26.9-9.7h-90.9V468.4z"/>
		<path class="st11" d="M1353.8,397h-195v39.9c0,10.3,2.8,18.7,8.3,24.9c5.5,6.3,13.5,9.4,23.8,9.4h68.1c11.4,0,20.9-3.3,28.3-10
			c7.4-6.6,12.9-13.7,16.6-21.1l44.9,24.4c5.2,3,6.5,7.2,3.9,12.7c-7.8,15.9-19.4,28.5-34.9,37.9c-15.5,9.4-36,14.1-61.5,14.1h-57.6
			c-35.8,0-63-9.5-81.4-28.5c-18.5-19-27.7-47.4-27.7-85v-88.6c0-37.7,9.2-66,27.7-85c18.5-19,45.6-28.5,81.4-28.5h46
			c35.8,0,63,9.5,81.4,28.5c18.5,19,27.7,47.4,27.7,85V397z M1158.8,346.6h125.8v-40.4c0-10.3-2.8-18.6-8.3-24.9
			c-5.5-6.3-13.5-9.4-23.8-9.4h-61.5c-10.3,0-18.3,3.1-23.8,9.4c-5.5,6.3-8.3,14.6-8.3,24.9V346.6z"/>
		<path class="st11" d="M1412,327.2c0-37.7,9.2-66,27.7-85c18.5-19,45.6-28.5,81.4-28.5h58.7c35.8,0,63,9.5,81.4,28.5
			c18.5,19,27.7,47.4,27.7,85v88.6c0,37.7-9.2,66-27.7,85c-18.5,19-45.6,28.5-81.4,28.5h-58.7c-35.8,0-63-9.5-81.4-28.5
			c-18.5-19-27.7-47.4-27.7-85V327.2z M1619.7,306.1c0-10.3-2.8-18.6-8.3-24.9c-5.5-6.3-13.5-9.4-23.8-9.4h-74.2
			c-10.3,0-18.3,3.1-23.8,9.4c-5.5,6.3-8.3,14.6-8.3,24.9v130.7c0,10.3,2.8,18.7,8.3,24.9c5.5,6.3,13.5,9.4,23.8,9.4h74.2
			c10.3,0,18.3-3.1,23.8-9.4c5.5-6.3,8.3-14.6,8.3-24.9V306.1z"/>
		<path class="st11" d="M2015.8,415.8c0,36.2-9.6,63.7-28.8,82.5c-19.2,18.8-47.5,28.3-84.8,28.3h-83.1v116.3H1761
			c-7.4,0-11.1-3.7-11.1-11.1V227.5c0-7.4,3.7-11.1,11.1-11.1h141.3c37.3,0,65.6,9.4,84.8,28.3c19.2,18.8,28.8,46.4,28.8,82.5V415.8
			z M1819.1,468.4h90.9c11.4,0,20.4-3.2,26.9-9.7c6.5-6.5,9.7-15.6,9.7-27.4V311.7c0-11.8-3.2-21-9.7-27.4
			c-6.5-6.5-15.4-9.7-26.9-9.7h-90.9V468.4z"/>
		<path class="st11" d="M2146,526.6h-58.2c-7.4,0-11.1-3.7-11.1-11.1V111.1c0-7.4,3.7-11.1,11.1-11.1h58.2V526.6z"/>
		<path class="st11" d="M2471.1,397h-195v39.9c0,10.3,2.8,18.7,8.3,24.9c5.5,6.3,13.5,9.4,23.8,9.4h68.1c11.4,0,20.9-3.3,28.3-10
			c7.4-6.6,12.9-13.7,16.6-21.1l44.9,24.4c5.2,3,6.5,7.2,3.9,12.7c-7.8,15.9-19.4,28.5-34.9,37.9c-15.5,9.4-36,14.1-61.5,14.1H2316
			c-35.8,0-63-9.5-81.4-28.5c-18.5-19-27.7-47.4-27.7-85v-88.6c0-37.7,9.2-66,27.7-85c18.5-19,45.6-28.5,81.4-28.5h46
			c35.8,0,63,9.5,81.4,28.5c18.5,19,27.7,47.4,27.7,85V397z M2276.1,346.6h125.8v-40.4c0-10.3-2.8-18.6-8.3-24.9
			c-5.5-6.3-13.5-9.4-23.8-9.4h-61.5c-10.3,0-18.3,3.1-23.8,9.4c-5.5,6.3-8.3,14.6-8.3,24.9V346.6z"/>
		<path class="st11" d="M2728.7,108.4l-6.6,47.1h-53.2c-12.2,0-21.1,3.5-26.9,10.5c-5.7,7-8.6,15.3-8.6,24.9v25.5h88.6v58.2h-88.6
			v252.1h-58.2c-7.4,0-11.1-3.7-11.1-11.1v-241h-55.4v-47.1c0-7.4,3.7-11.1,11.1-11.1h44.3v-11.1c0-34.7,9.5-61.4,28.5-80
			c19-18.6,45.9-28,80.6-28h46C2726.7,97.3,2729.8,101,2728.7,108.4z"/>
		<path class="st11" d="M2951.4,461.8c5.5-6.3,8.3-14.6,8.3-24.9V227.5c0-7.4,3.7-11.1,11.1-11.1h58.2v202.2
			c0,36.2-9.1,63.7-27.1,82.5c-18.1,18.8-44.5,28.3-79.2,28.3h-51c-34.7,0-61.1-9.4-79.2-28.3c-18.1-18.8-27.1-46.3-27.1-82.5V227.5
			c0-7.4,3.7-11.1,11.1-11.1h58.2v220.5c0,10.3,2.8,18.7,8.3,24.9c5.5,6.3,13.5,9.4,23.8,9.4h60.9
			C2937.9,471.2,2945.9,468.1,2951.4,461.8z"/>
		<path class="st11" d="M3294.9,526.6c-7.4,0-11.1-3.7-11.1-11.1V311.7c0-11.8-3.2-21-9.7-27.4c-6.5-6.5-15.4-9.7-26.9-9.7h-85.3
			v252.1h-58.2c-7.4,0-11.1-3.7-11.1-11.1V227.5c0-7.4,3.7-11.1,11.1-11.1H3245c35.8,0,62.8,9.4,80.9,28.3
			c18.1,18.8,27.1,46.4,27.1,82.5v199.4H3294.9z"/>
		<path class="st11" d="M3607.9,216.4V111.1c0-7.4,3.7-11.1,11.1-11.1h58.2v415.5c0,7.4-3.7,11.1-11.1,11.1h-146.8
			c-35.8,0-62.8-9.4-80.9-28.3c-18.1-18.8-27.1-46.3-27.1-82.5v-88.6c0-36.2,9-63.7,27.1-82.5c18.1-18.8,45.1-28.3,80.9-28.3H3607.9
			z M3607.9,274.6H3517c-11.5,0-20.4,3.2-26.9,9.7c-6.5,6.5-9.7,15.6-9.7,27.4v119.7c0,11.8,3.2,21,9.7,27.4
			c6.5,6.5,15.4,9.7,26.9,9.7h90.9V274.6z"/>
	</g>
</g>
</svg>
