<?xml version="1.0" encoding="utf-8"?>
<!-- Generator: Adobe Illustrator 22.0.1, SVG Export Plug-In . SVG Version: 6.00 Build 0)  -->
<svg version="1.1" id="Layer_1" xmlns="http://www.w3.org/2000/svg" xmlns:xlink="http://www.w3.org/1999/xlink" x="0px" y="0px"
	 viewBox="0 0 158 38" style="enable-background:new 0 0 158 38;" xml:space="preserve">
<style type="text/css">
	.st0{fill:#292929;}
</style>
<g>
	<path class="st0" d="M28,7c0-1.5-0.9-2.9-2.2-3.6l-4.4-2.6c-1.3-0.7-2.8-0.8-4.1-0.1c-0.1,0-0.1,0.1-0.2,0.1L2.3,9.3
		c-0.4,0.2-0.7,0.5-1,0.9c-0.7,0.8-1.1,1.8-1.1,2.9v15.2c0,0.2,0,0.4,0.1,0.6c0.4,1.9,2.5,3,4.3,2l4-2.3l0,0v9
		c0,0.2,0.2,0.3,0.4,0.2l2.8-1.6V36v-9.3l0,0l7.1-4.1c0.7-0.4,1.2-1.2,1.2-2v-1.3V9.6c0-0.4-0.5-0.7-0.9-0.5l-8.8,5.1l-0.6,0.3
		c-0.7,0.4-1.2,1.2-1.2,2l0,7.1v1.1l-4.6,2.6c-0.2,0.1-0.4,0.1-0.5-0.1c-0.1-0.1-0.1-0.2-0.1-0.3V13.5c0-0.7,0.4-1.4,1-1.8l0,0
		l13.9-8c0.1-0.1,0.3-0.1,0.4-0.1c0.5-0.1,1-0.1,1.5,0.2l3.6,2.1c0.5,0.3,0.8,0.7,0.9,1.2c0.1,0.2,0.1,0.4,0.1,0.6l0,16
		c0,0.5-0.2,0.9-0.5,1.3c-0.1,0.1-0.2,0.2-0.3,0.3l-9.3,5.4v3.2c0,0.2,0.2,0.4,0.4,0.3l7.6-4.4l0,0l3.1-1.8c0.7-0.4,1.3-1,1.7-1.7
		c0.3-0.6,0.5-1.3,0.5-2V7.1C28,7.1,28,7.1,28,7z M16.7,14.1l0,3.5l0,1.5c0,0.5-0.3,1-0.7,1.3l-4.4,2.5l0,0v0v-5
		c0-0.5,0.3-1,0.7-1.3l1.1-0.7L16.7,14.1z"/>
	<g>
		<path class="st0" d="M44.3,18c0,1.5-0.4,2.7-1.2,3.5c-0.8,0.8-2,1.2-3.6,1.2h-3.5v5h-2.5c-0.3,0-0.5-0.2-0.5-0.5V9.9
			c0-0.3,0.2-0.5,0.5-0.5h6c1.6,0,2.8,0.4,3.6,1.2c0.8,0.8,1.2,2,1.2,3.5V18z M35.9,20.2h3.9c0.5,0,0.9-0.1,1.1-0.4
			c0.3-0.3,0.4-0.7,0.4-1.2v-5.1c0-0.5-0.1-0.9-0.4-1.2c-0.3-0.3-0.7-0.4-1.1-0.4h-3.9V20.2z"/>
		<path class="st0" d="M57.9,17.2h-8.3v1.7c0,0.4,0.1,0.8,0.4,1.1c0.2,0.3,0.6,0.4,1,0.4h2.9c0.5,0,0.9-0.1,1.2-0.4
			c0.3-0.3,0.6-0.6,0.7-0.9l1.9,1c0.2,0.1,0.3,0.3,0.2,0.5c-0.3,0.7-0.8,1.2-1.5,1.6c-0.7,0.4-1.5,0.6-2.6,0.6h-2.5
			c-1.5,0-2.7-0.4-3.5-1.2c-0.8-0.8-1.2-2-1.2-3.6v-3.8c0-1.6,0.4-2.8,1.2-3.6c0.8-0.8,1.9-1.2,3.5-1.2h2c1.5,0,2.7,0.4,3.5,1.2
			c0.8,0.8,1.2,2,1.2,3.6V17.2z M49.6,15H55v-1.7c0-0.4-0.1-0.8-0.4-1.1c-0.2-0.3-0.6-0.4-1-0.4H51c-0.4,0-0.8,0.1-1,0.4
			c-0.2,0.3-0.4,0.6-0.4,1.1V15z"/>
		<path class="st0" d="M60.4,14.2c0-1.6,0.4-2.8,1.2-3.6c0.8-0.8,1.9-1.2,3.5-1.2h2.5c1.5,0,2.7,0.4,3.5,1.2c0.8,0.8,1.2,2,1.2,3.6
			V18c0,1.6-0.4,2.8-1.2,3.6c-0.8,0.8-1.9,1.2-3.5,1.2h-2.5c-1.5,0-2.7-0.4-3.5-1.2c-0.8-0.8-1.2-2-1.2-3.6V14.2z M69.3,13.3
			c0-0.4-0.1-0.8-0.4-1.1c-0.2-0.3-0.6-0.4-1-0.4h-3.2c-0.4,0-0.8,0.1-1,0.4c-0.2,0.3-0.4,0.6-0.4,1.1v5.6c0,0.4,0.1,0.8,0.4,1.1
			c0.2,0.3,0.6,0.4,1,0.4h3.2c0.4,0,0.8-0.1,1-0.4c0.2-0.3,0.4-0.6,0.4-1.1V13.3z"/>
		<path class="st0" d="M86.2,18c0,1.5-0.4,2.7-1.2,3.5c-0.8,0.8-2,1.2-3.6,1.2h-3.5v5h-2.5c-0.3,0-0.5-0.2-0.5-0.5V9.9
			c0-0.3,0.2-0.5,0.5-0.5h6c1.6,0,2.8,0.4,3.6,1.2c0.8,0.8,1.2,2,1.2,3.5V18z M77.8,20.2h3.9c0.5,0,0.9-0.1,1.1-0.4
			c0.3-0.3,0.4-0.7,0.4-1.2v-5.1c0-0.5-0.1-0.9-0.4-1.2c-0.3-0.3-0.7-0.4-1.1-0.4h-3.9V20.2z"/>
		<path class="st0" d="M91.7,22.7h-2.5c-0.3,0-0.5-0.2-0.5-0.5V5c0-0.3,0.2-0.5,0.5-0.5h2.5V22.7z"/>
		<path class="st0" d="M105.6,17.2h-8.3v1.7c0,0.4,0.1,0.8,0.4,1.1c0.2,0.3,0.6,0.4,1,0.4h2.9c0.5,0,0.9-0.1,1.2-0.4
			c0.3-0.3,0.6-0.6,0.7-0.9l1.9,1c0.2,0.1,0.3,0.3,0.2,0.5c-0.3,0.7-0.8,1.2-1.5,1.6c-0.7,0.4-1.5,0.6-2.6,0.6H99
			c-1.5,0-2.7-0.4-3.5-1.2c-0.8-0.8-1.2-2-1.2-3.6v-3.8c0-1.6,0.4-2.8,1.2-3.6c0.8-0.8,1.9-1.2,3.5-1.2h2c1.5,0,2.7,0.4,3.5,1.2
			c0.8,0.8,1.2,2,1.2,3.6V17.2z M97.3,15h5.4v-1.7c0-0.4-0.1-0.8-0.4-1.1c-0.2-0.3-0.6-0.4-1-0.4h-2.6c-0.4,0-0.8,0.1-1,0.4
			c-0.2,0.3-0.4,0.6-0.4,1.1V15z"/>
		<path class="st0" d="M116.6,4.8l-0.3,2H114c-0.5,0-0.9,0.1-1.1,0.4c-0.2,0.3-0.4,0.7-0.4,1.1v1.1h3.8v2.5h-3.8v10.8H110
			c-0.3,0-0.5-0.2-0.5-0.5V11.9h-2.4v-2c0-0.3,0.2-0.5,0.5-0.5h1.9V9c0-1.5,0.4-2.6,1.2-3.4c0.8-0.8,2-1.2,3.4-1.2h2
			C116.5,4.4,116.6,4.5,116.6,4.8z"/>
		<path class="st0" d="M126.1,19.9c0.2-0.3,0.4-0.6,0.4-1.1V9.9c0-0.3,0.2-0.5,0.5-0.5h2.5v8.6c0,1.5-0.4,2.7-1.2,3.5
			c-0.8,0.8-1.9,1.2-3.4,1.2h-2.2c-1.5,0-2.6-0.4-3.4-1.2c-0.8-0.8-1.2-2-1.2-3.5V9.9c0-0.3,0.2-0.5,0.5-0.5h2.5v9.4
			c0,0.4,0.1,0.8,0.4,1.1c0.2,0.3,0.6,0.4,1,0.4h2.6C125.5,20.3,125.9,20.2,126.1,19.9z"/>
		<path class="st0" d="M140.7,22.7c-0.3,0-0.5-0.2-0.5-0.5v-8.7c0-0.5-0.1-0.9-0.4-1.2c-0.3-0.3-0.7-0.4-1.1-0.4h-3.6v10.8h-2.5
			c-0.3,0-0.5-0.2-0.5-0.5V9.9c0-0.3,0.2-0.5,0.5-0.5h6c1.5,0,2.7,0.4,3.5,1.2c0.8,0.8,1.2,2,1.2,3.5v8.5H140.7z"/>
		<path class="st0" d="M154.1,9.5V5c0-0.3,0.2-0.5,0.5-0.5h2.5v17.7c0,0.3-0.2,0.5-0.5,0.5h-6.3c-1.5,0-2.7-0.4-3.5-1.2
			c-0.8-0.8-1.2-2-1.2-3.5v-3.8c0-1.5,0.4-2.7,1.2-3.5c0.8-0.8,1.9-1.2,3.5-1.2H154.1z M154.1,11.9h-3.9c-0.5,0-0.9,0.1-1.1,0.4
			c-0.3,0.3-0.4,0.7-0.4,1.2v5.1c0,0.5,0.1,0.9,0.4,1.2c0.3,0.3,0.7,0.4,1.1,0.4h3.9V11.9z"/>
	</g>
</g>
</svg>
